<?xml version="1.0" standalone="no"?><!DOCTYPE svg PUBLIC "-//W3C//DTD SVG 1.1//EN" "http://www.w3.org/Graphics/SVG/1.1/DTD/svg11.dtd"><svg t="1563047716547" class="icon" viewBox="0 0 1024 1024" version="1.1" xmlns="http://www.w3.org/2000/svg" p-id="695" xmlns:xlink="http://www.w3.org/1999/xlink" width="200" height="200"><defs><style type="text/css"></style></defs><path d="M672 576M640 576M879.994667 355.316267l-340.405333-125.1232c-21.2192-8.2112-16.766933-8.263467-37.816533-0.119467L159.316267 354.192c-21.048533 8.144-20.912 21.402667 0.308267 29.6128l81.374933 29.508267c-36.0352 37.330133-38.3712 76.1408-38.855467 121.143467-13.9264 5.736533-23.812267 20.168533-23.812267 37.0784 0 15.5264 8.337067 28.964267 20.481067 35.501867-5.771733 45.722667-22.289067 97.960533-70.8128 159.851733 24.004267 19.866667 36.3936 26.488533 54.977067 33.111467 67.8336-31.1392 59.5872-113.934933 54.3072-196.280533 9.317333-7.2192 15.3824-18.941867 15.3824-32.183467 0-14.197333-6.9696-26.645333-17.444267-33.672533 1.2064-44.096 10.190933-83.5456 41.0272-109.066667 0.2528-0.674133 0.9696-1.293867 2.301867-1.864533l234.010667-101.1072c8.6784-3.719467 18.5344 0.786133 22.013867 10.065067l0.308267 0.8192c3.479467 9.277867-0.734933 19.8144-9.4144 23.5328L327.706667 444.757333l176.968533 64.1728c21.2192 8.2112 16.766933 8.263467 37.816533 0.119467l337.812267-124.1216C901.352533 376.784 901.213867 363.525333 879.994667 355.316267zM504.138667 556.939733l-214.216533-77.6256 0 58.379733c11.198933 10.968533 17.378133 26.702933 17.378133 44.187733 0 15.720533-5.138133 30.021333-13.816533 40.72 2.839467 9.168 7.784533 18.129067 14.848 20.948267 124.666667 73.671467 296.9888 72.843733 435.592533-7.4496 10.279467-9.150933 18.2304-20.482133 18.2304-31.454933L762.154667 476.0576l-220.039467 81.000533C521.0688 565.2032 525.357867 565.149867 504.138667 556.939733z" p-id="696"></path></svg>