<?xml version="1.0" encoding="utf-8"?>
<!-- Generator: Adobe Illustrator 22.1.0, SVG Export Plug-In . SVG Version: 6.00 Build 0)  -->
<svg version="1.1" id="Layer_1" xmlns="http://www.w3.org/2000/svg" xmlns:xlink="http://www.w3.org/1999/xlink" x="0px" y="0px"
	 viewBox="0 0 188.4 188.4" style="enable-background:new 0 0 188.4 188.4;" xml:space="preserve">
<style type="text/css">
	.st0{fill:#326CFE;}
	.st1{fill:#FFFFFF;}
	.st2{fill:#0585FD;}
</style>
<title>logo</title>
<circle class="st0" cx="94.2" cy="94.2" r="93.9"/>
<g>
	<circle class="st1" cx="94.2" cy="94.2" r="65.9"/>
	<path class="st2" d="M138.5,74.5c-3.6,4-6.9,7.7-10.3,11.4c-8.4,9.3-16.9,18.6-25.2,28c-1.3,1.5-1.9,1.3-3.1-0.1
		c-5-5.7-10.1-11.3-15.1-17c-0.9-1-1.6-1.1-2.7-0.4c-9.9,5.7-19.8,11.3-29.7,16.9c-0.7,0.4-1.3,1.1-2.4,0.7
		c3.7-4.2,7.4-8.2,11.1-12.3c8.2-9.1,16.5-18.2,24.6-27.3c1.1-1.3,1.7-1.3,2.8,0c5.2,5.7,10.5,11.4,15.6,17.1c1,1.1,1.7,1.2,2.9,0.4
		c9.7-5.7,19.5-11.3,29.2-16.9C136.8,74.8,137.3,74.2,138.5,74.5z"/>
</g>
</svg>
