<?xml version="1.0" encoding="utf-8"?>
<!-- Generator: Adobe Illustrator 22.1.0, SVG Export Plug-In . SVG Version: 6.00 Build 0)  -->
<svg version="1.1" id="Layer_1" xmlns="http://www.w3.org/2000/svg" xmlns:xlink="http://www.w3.org/1999/xlink" x="0px" y="0px"
	 viewBox="0 0 188.4 188.4" style="enable-background:new 0 0 188.4 188.4;" xml:space="preserve">
<style type="text/css">
	.st0{fill:#326CFE;}
	.st1{fill:#FFFFFF;}
</style>
<title>logo</title>
<circle class="st0" cx="94.2" cy="94.2" r="93.9"/>
<g>
	<g>
		<path class="st1" d="M46.5,58.3L46.5,58.3c4.6,0,8.8,2.7,10.8,6.8l23.3,48.2c2.9,5.9,0.4,13.1-5.6,16c-1.6,0.8-3.4,1.2-5.2,1.2
			c-4.6,0-8.8-2.7-10.8-6.8L35.7,75.4c-2.9-5.9-0.4-13.1,5.6-16C42.9,58.7,44.7,58.3,46.5,58.3 M46.5,54.3c-2.3,0-4.7,0.5-6.9,1.6h0
			c-7.9,3.8-11.3,13.4-7.4,21.3l23.3,48.2c2.8,5.7,8.4,9,14.4,9c2.3,0,4.7-0.5,6.9-1.6l0,0c7.9-3.8,11.3-13.4,7.4-21.3L60.9,63.3
			C58.1,57.6,52.4,54.3,46.5,54.3L46.5,54.3z"/>
	</g>
	<g>
		<path class="st1" d="M141.9,58c1.8,0,3.5,0.4,5.2,1.2c5.9,2.9,8.4,10,5.6,16l-23.3,48.2c-2,4.1-6.2,6.8-10.8,6.8
			c-1.8,0-3.5-0.4-5.2-1.2c-2.9-1.4-5-3.8-6.1-6.8c-1.1-3-0.9-6.3,0.5-9.1l23.3-48.2C133.1,60.7,137.3,58,141.9,58 M141.9,54
			c-5.9,0-11.6,3.3-14.4,9l-23.3,48.2c-3.8,7.9-0.5,17.5,7.4,21.3l0,0c2.2,1.1,4.6,1.6,6.9,1.6c5.9,0,11.6-3.3,14.4-9l23.3-48.2
			c3.8-7.9,0.5-17.5-7.4-21.3h0C146.6,54.5,144.2,54,141.9,54L141.9,54z"/>
	</g>
	<path class="st1" d="M124.4,132.8L124.4,132.8c-7.9,3.8-17.5,0.5-21.3-7.4L79.9,77.2c-3.8-7.9-0.5-17.5,7.4-21.3l0,0
		c7.9-3.8,17.5-0.5,21.3,7.4l23.3,48.2C135.7,119.4,132.4,129,124.4,132.8z"/>
	<path class="st1" d="M63.4,132.8L63.4,132.8c7.9,3.8,17.5,0.5,21.3-7.4L108,77.2c3.8-7.9,0.5-17.5-7.4-21.3l0,0
		c-7.9-3.8-17.5-0.5-21.3,7.4L56,111.5C52.2,119.4,55.5,129,63.4,132.8z"/>
</g>
</svg>
